<svg id="Layer_1" data-name="Layer 1" xmlns="http://www.w3.org/2000/svg" viewBox="0 0 1322 293.11"><defs><style>.cls-1{fill:none;stroke:#d9d9d9;stroke-linecap:round;stroke-miterlimit:10;stroke-width:48px;}.cls-2{fill:#d9d9d9;}</style></defs><title>iStrap_Logo</title><path class="cls-1" d="M252,132.84s-48-96-126-96c-54.12,0-98,43-98,96s43.88,96,98,96c30,0,56.45-13.18,78-32" transform="translate(-4 -2.23)"/><path class="cls-1" d="M252,132.84s48,96,126,96c54.12,0,98-43,98-96s-43.88-96-98-96c-29.37,0-56.66,13.75-78,32" transform="translate(-4 -2.23)"/><path class="cls-2" d="M594.89,39.54A21.89,21.89,0,0,1,579,45.9a21.61,21.61,0,0,1-15.79-6.36,20.82,20.82,0,0,1-6.45-15.39A21,21,0,0,1,563.23,8.6,21.62,21.62,0,0,1,579,2.23,21.9,21.9,0,0,1,594.89,8.6a20.9,20.9,0,0,1,6.53,15.55A20.7,20.7,0,0,1,594.89,39.54ZM559,239.11V68.3h40.12V239.11Z" transform="translate(-4 -2.23)"/><path class="cls-2" d="M613.17,173.69h40.28q1.93,15.94,16.44,25.7t35.93,9.75q21,0,34.24-9.35t13.3-23.85a25,25,0,0,0-9.67-20.38q-9.68-7.81-31.58-13L682,135.5q-32.07-7.41-47.61-23t-15.55-40.6q0-30.78,24.17-50T705.34,2.72q38.34,0,61.79,18.93t24.26,49.71H751.75q-1.46-16.28-14-25.54T705,36.56q-19.66,0-31.83,8.86T661,68.78a22.72,22.72,0,0,0,9.42,18.86q9.43,7.24,30.86,12.41l26.75,6.12q35.28,8.06,51.24,23.52t16,41.42q0,33-24.73,52.45T703.57,243q-40.29,0-64.7-18.61T613.17,173.69Z" transform="translate(-4 -2.23)"/><path class="cls-2" d="M819.41,28.34h40.13v40h32.22V99.24H859.54V188q0,10.47,5,15.47t15.63,5a66,66,0,0,0,11.44-.8V238.3q-7.25,1.6-20.78,1.61-27.72,0-39.56-10.63t-11.85-35.61V99.24H794.92V68.3h24.49Z" transform="translate(-4 -2.23)"/><path class="cls-2" d="M904.81,239.11V68.3h38.51V98.11h.8q4.35-15.63,15.07-24.17t25.86-8.54A59.32,59.32,0,0,1,997.62,67v36.26q-6-2.25-16.27-2.26-17.08,0-26.75,10.32t-9.67,28.36v99.42Z" transform="translate(-4 -2.23)"/><path class="cls-2" d="M1050.63,241.85q-25,0-41-14.34t-16-37.23q0-22.71,16.84-35.93t48.1-15.15l45.12-2.58V124.38q0-13.38-8.46-20.79t-23.44-7.41q-14,0-22.89,6.28a25.73,25.73,0,0,0-10.79,17.08h-37.23q1.29-24.33,20.87-39.56t51.65-15.22q31.74,0,50.84,15.47t19.09,41.25V239.11h-38.67V211.88h-.81a53.27,53.27,0,0,1-21.91,21.83A63.51,63.51,0,0,1,1050.63,241.85Zm12.08-30.3q17.25,0,29.09-10.23t11.84-25.54V162.73l-39.48,2.42q-14.51,1-22.48,7.17a19.71,19.71,0,0,0-8,16.35,20,20,0,0,0,8,16.68Q1049.66,211.56,1062.71,211.55Z" transform="translate(-4 -2.23)"/><path class="cls-2" d="M1255.1,65.4q32.55,0,51.72,23.69T1326,153.7q0,40.77-19,64.46t-51.25,23.69q-18.36,0-32.39-8.3a53,53,0,0,1-21.1-22.8h-.81v84.59h-40.12V68.3h39.15V97.79h.81A56.33,56.33,0,0,1,1222.71,74Q1236.73,65.41,1255.1,65.4ZM1242.85,209q19.5,0,30.78-14.9t11.28-40.37q0-25.29-11.36-40.28t-30.7-15q-18.69,0-30.13,15.15t-11.6,40.12q.15,25.14,11.6,40.21T1242.85,209Z" transform="translate(-4 -2.23)"/></svg>